#!OML:ASF E:\Steps\Project 1\Capture day 1\Session 2\Subject.ASF
:FULLY-SPECIFIED
:DEGREES
270
root -6.53451 15.5532 20.1706 -156.987 -12.9972 -182.566
lowerback -26.983 -6.24741 -4.61931
upperback 1.26493 -7.23046 1.59025
thorax 16.6441 -3.70877 1.36709
lowerneck 19.4557 -3.76919 -9.2923
upperneck 3.43194 -5.86592 7.91552
head -1.49203 -2.95774 4.28828
rclavicle 5.39328e-014 -2.98177e-016
rhumerus -54.7927 -38.2642 -51.4409
rradius 18.8937
rwrist 16.3377
rhand 28.1568 -5.98098
rfingers 7.12502
rthumb 52.0424 -26.0614
lclavicle 5.39328e-014 -2.98177e-016
lhumerus -23.0349 -7.68366 85.6747
lradius 32.9753
lwrist 1.07899
lhand -23.7836 -12.9122
lfingers 7.12502
lthumb 2.68633 17.0506
rfemur -45.7925 1.85458 10.0658
rtibia 12.4726
rfoot -3.97539 -16.7621
rtoes -31.2949
lfemur -9.28729 -14.4097 -20.9608
ltibia 23.1733
lfoot -12.5011 -7.39541
ltoes -33.6738
271
root -6.5072 15.5678 20.0008 -157.062 -12.8036 -182.366
lowerback -26.8798 -6.15797 -4.49955
upperback 1.1379 -7.17273 1.64949
thorax 16.4312 -3.68105 1.40661
lowerneck 19.5153 -3.70854 -9.76944
upperneck 3.69645 -5.86058 8.34288
head -1.39757 -2.96733 4.49564
rclavicle 1.98163e-014 -8.15017e-015
rhumerus -55.3519 -38.5521 -50.978
rradius 18.7904
rwrist 16.6868
rhand 28.1671 -6.0325
rfingers 7.12502
rthumb 52.0518 -26.1073
lclavicle 1.98163e-014 -8.15017e-015
lhumerus -23.3118 -7.16129 85.7119
lradius 32.5421
lwrist 0.806478
lhand -23.6351 -12.0613
lfingers 7.12502
lthumb 2.82975 17.8996
rfemur -45.9144 1.93913 10.7826
rtibia 13.6125
rfoot -4.15779 -15.838
rtoes -27.5961
lfemur -9.23854 -14.5082 -20.6799
ltibia 24.3053
lfoot -11.6845 -7.18125
ltoes -33.6655
272
root -6.4874 15.5797 19.8165 -157.097 -12.3361 -181.985
lowerback -27.3335 -5.93434 -4.06728
upperback 1.20713 -6.99792 1.63429
thorax 16.6715 -3.56409 1.18996
lowerneck 19.3826 -3.68669 -10.0378
upperneck 3.8703 -5.87215 8.5951
head -1.31184 -2.98202 4.61208
rclavicle 1.8313e-014 -9.44227e-015
rhumerus -55.5551 -38.843 -50.8957
rradius 18.6208
rwrist 16.9552
rhand 28.5271 -6.15459
rfingers 7.12502
rthumb 52.378 -26.033
lclavicle 1.8313e-014 -9.44227e-015
lhumerus -23.2832 -6.59702 85.5282
lradius 31.937
lwrist 0.360267
lhand -23.3322 -10.9326
lfingers 7.12502
lthumb 3.12231 19.0243
rfemur -46.2047 2.43956 11.5922
rtibia 14.9229
rfoot -4.69691 -15.0928
rtoes -23.4222
lfemur -9.16477 -14.3312 -20.3466
ltibia 25.3793
lfoot -10.8933 -6.71357
ltoes -35.9837
273
root -6.46718 15.5964 19.6339 -157.153 -11.8233 -181.546
lowerback -27.5102 -5.71623 -3.69529
upperback 1.15312 -6.8535 1.76187
thorax 16.6602 -3.4782 1.17778
lowerneck 19.092 -3.70635 -10.0916
upperneck 4.31163 -5.88023 8.37723
head -1.1379 -2.96602 4.53815
rclavicle -2.4084e-014 -5.06901e-015
rhumerus -55.8515 -39.1364 -50.3851
rradius 18.4138
rwrist 17.3465
rhand 29.5009 -6.41949
rfingers 7.12502
rthumb 53.2577 -25.7473
lclavicle -2.4084e-014 -5.06901e-015
lhumerus -23.4753 -5.76152 85.5055
lradius 31.2941
lwrist -0.110869
lhand -22.7754 -10.3672
lfingers 7.12502
lthumb 3.66 19.5811
rfemur -46.5201 2.86856 12.5772
rtibia 16.4275
rfoot -5.39249 -14.1438
rtoes -19.455
lfemur -9.18382 -14.1434 -19.9758
ltibia 26.618
lfoot -9.98187 -6.28383
ltoes -37.3974
274
root -6.44861 15.6174 19.4554 -157.207 -11.2114 -181.151
lowerback -27.61 -5.48031 -3.29924
upperback 1.08897 -6.69195 1.85189
thorax 16.5903 -3.38243 1.12516
lowerneck 19.5716 -3.48524 -10.5798
upperneck 3.77574 -5.73402 8.72183
head -1.36131 -2.92705 4.73834
rclavicle -2.36492e-014 -2.98177e-016
rhumerus -55.7911 -39.1269 -50.4407
rradius 18.3226
rwrist 17.3494
rhand 29.8623 -6.51377
rfingers 7.12502
rthumb 53.5831 -25.6298
lclavicle -2.36492e-014 -2.98177e-016
lhumerus -23.7748 -4.83413 85.4636
lradius 30.7498
lwrist -0.414478
lhand -22.4393 -10.0058
lfingers 7.12502
lthumb 3.98452 19.9367
rfemur -46.7651 3.18248 13.5529
rtibia 17.8105
rfoot -5.97586 -13.0689
rtoes -16.884
lfemur -9.34149 -14.0162 -19.7001
ltibia 28.1519
lfoot -8.76861 -5.93395
ltoes -36.3538
275
root -6.42415 15.6513 19.2931 -157.32 -10.9088 -181.087
lowerback -27.2992 -5.48789 -3.35447
upperback 1.00083 -6.71237 1.95591
thorax 16.3555 -3.40662 1.28746
lowerneck 20.6594 -3.12867 -10.5189
upperneck 2.52028 -5.36452 8.55172
head -1.93875 -2.76562 4.70361
rclavicle -3.03644e-014 1.53468e-014
rhumerus -55.2047 -38.5675 -51.2977
rradius 18.3832
rwrist 16.8128
rhand 29.3631 -6.48658
rfingers 7.12502
rthumb 53.1335 -25.894
lclavicle -3.03644e-014 1.53468e-014
lhumerus -24.0834 -3.93543 85.4258
lradius 30.2915
lwrist -0.643042
lhand -22.2746 -9.69071
lfingers 7.12502
lthumb 4.14357 20.2487
rfemur -46.6777 3.47376 13.9515
rtibia 18.9102
rfoot -6.63251 -12.7813
rtoes -14.0714
lfemur -9.75177 -13.9922 -19.6527
ltibia 30.1883
lfoot -7.32043 -5.71153
ltoes -35.0262
276
root -6.4096 15.6719 19.1115 -157.382 -10.2975 -180.871
lowerback -27.4758 -5.32996 -3.02412
upperback 0.995274 -6.60619 1.92046
thorax 16.3866 -3.33174 1.10139
lowerneck 18.9428 -3.13027 -9.37916
upperneck 4.75925 -4.94635 7.27212
head -1.10392 -2.4311 4.02526
rclavicle -5.0864e-014 -1.96051e-014
rhumerus -54.6586 -38.0391 -52.2795
rradius 18.4909
rwrist 16.3847
rhand 28.8996 -6.53538
rfingers 7.12502
rthumb 52.715 -26.2065
lclavicle -5.0864e-014 -1.96051e-014
lhumerus -24.4835 -3.0671 85.1463
lradius 29.8962
lwrist -0.82538
lhand -21.9958 -9.68593
lfingers 7.12502
lthumb 4.41283 20.2481
rfemur -46.5379 3.92304 14.5327
rtibia 19.8239
rfoot -6.70306 -12.0831
rtoes -17.0175
lfemur -10.0743 -13.5534 -19.6349
ltibia 32.1375
lfoot -5.935 -5.16639
ltoes -34.9015
277
root -6.39089 15.6923 18.9316 -157.516 -9.92274 -180.553
lowerback -27.7353 -5.29094 -2.75872
upperback 1.1075 -6.65364 2.03424
thorax 16.6392 -3.33102 1.03854
lowerneck 13.5629 -3.65403 -9.18299
upperneck 11.4622 -4.96029 6.57518
head 1.67969 -2.23134 3.62612
rclavicle -3.96863e-014 9.24659e-015
rhumerus -53.8384 -37.6387 -53.2255
rradius 18.5945
rwrist 15.914
rhand 28.7478 -6.69549
rfingers 7.12502
rthumb 52.5777 -26.4517
lclavicle -3.96863e-014 9.24659e-015
lhumerus -24.7964 -2.21118 84.9813
lradius 29.5703
lwrist -0.843622
lhand -21.7787 -9.66878
lfingers 7.12502
lthumb 4.62242 20.2608
rfemur -46.0785 4.22299 15.305
rtibia 20.3598
rfoot -6.99636 -11.5137
rtoes -17.3871
lfemur -10.5947 -12.9801 -19.3735
ltibia 34.2686
lfoot -4.23675 -4.76175
ltoes -33.5094
278
root -6.36546 15.716 18.761 -157.569 -9.66481 -180.307
lowerback -27.8206 -5.26207 -2.58277
upperback 1.10446 -6.68669 2.09938
thorax 16.6694 -3.33443 0.994674
lowerneck 7.52369 -4.11311 -6.29778
upperneck 18.6086 -4.28647 3.56483
head 4.61279 -1.58814 2.14103
rclavicle 1.85398e-014 1.19457e-014
rhumerus -53.1119 -37.0192 -54.3619
rradius 18.8282
rwrist 15.137
rhand 28.3972 -6.78691
rfingers 7.12502
rthumb 52.2603 -26.7367
lclavicle 1.85398e-014 1.19457e-014
lhumerus -25.3099 -1.74164 84.8352
lradius 29.3589
lwrist -0.669071
lhand -21.6827 -9.57493
lfingers 7.12502
lthumb 4.71517 20.3526
rfemur -45.658 4.50624 15.9485
rtibia 20.78
rfoot -7.43694 -11.1815
rtoes -16.9731
lfemur -11.412 -12.2825 -19.0169
ltibia 36.5208
lfoot -2.0861 -4.39866
ltoes -30.6197
279
root -6.33985 15.7397 18.5889 -157.65 -9.31811 -180.128
lowerback -27.7368 -5.19725 -2.48685
upperback 1.01953 -6.64519 2.12668
thorax 16.5173 -3.31499 0.999485
lowerneck 3.61205 -4.05163 -2.90944
upperneck 23.1825 -3.13705 0.500033
head 6.5314 -0.793011 0.619985
rclavicle 8.60365e-015 4.24902e-015
rhumerus -52.4723 -36.0039 -55.7609
rradius 19.3031
rwrist 14.0315
rhand 27.4573 -6.78431
rfingers 7.12502
rthumb 51.4071 -27.2356
lclavicle 8.60365e-015 4.24902e-015
lhumerus -25.9221 -1.16027 84.6496
lradius 29.0464
lwrist -0.626125
lhand -21.6612 -10.0308
lfingers 7.12502
lthumb 4.73596 19.8962
rfemur -45.0885 4.89132 16.5024
rtibia 21.0003
rfoot -7.77919 -10.8944
rtoes -17.5116
lfemur -12.213 -11.3628 -18.7385
ltibia 38.6621
lfoot 0.32213 -3.92666
ltoes -28.2174
